Coordinates
version=1
nRows=36
nColumns=32
inDegrees=no

Units are S.I. units (second, meters, Newtons, ...)
If the header above contains a line with 'inDegrees', this indicates whether rotational values are in degrees (yes) or radians (no).

endheader
time	pelvis_tilt	pelvis_list	pelvis_rotation	pelvis_tx	pelvis_ty	pelvis_tz	hip_flexion_r	hip_adduction_r	hip_rotation_r	knee_angle_r	ankle_angle_r	subtalar_angle_r	mtp_angle_r	hip_flexion_l	hip_adduction_l	hip_rotation_l	knee_angle_l	ankle_angle_l	subtalar_angle_l	mtp_angle_l	lumbar_extension	lumbar_bending	lumbar_rotation	arm_flex_r	arm_add_r	arm_rot_r	elbow_flex_r	arm_flex_l	arm_add_l	arm_rot_l	elbow_flex_l
2.715	-0.231026	0.0647714	0.170739	0.846155	0.972966	-0.315892	0.00221833	-0.0733413	-0.171385	1.65328	-0.535865	-0.516997	0.00227312	0.760791	0.0717419	-0.447324	0.398263	-0.138153	0.478452	-0.0134982	-0.00827012	-0.150798	0.0194303	-0.544338	-0.237937	-0.131396	2.1347	-0.88042	-0.31147	-0.160091	2.28586
2.72	-0.22378	0.0716955	0.172645	0.846187	0.970416	-0.31589	0.0249362	-0.0871604	-0.169289	1.7193	-0.51393	-0.519399	0.00222852	0.748245	0.074703	-0.421891	0.436081	-0.100449	0.456025	-0.0135058	-0.0215125	-0.159316	0.00313343	-0.546257	-0.231765	-0.129389	2.10801	-0.865788	-0.31312	-0.156637	2.28085
2.725	-0.216724	0.0789849	0.173497	0.846155	0.967748	-0.315854	0.0497196	-0.101685	-0.164775	1.78353	-0.491969	-0.520223	0.00218393	0.736315	0.0778397	-0.397518	0.478183	-0.0527377	0.430787	-0.0135133	-0.0347742	-0.168053	-0.013131	-0.54805	-0.22578	-0.127194	2.08055	-0.850627	-0.314786	-0.153097	2.27462
2.73	-0.210219	0.0864749	0.173354	0.845999	0.964995	-0.31579	0.0773861	-0.116593	-0.157436	1.84589	-0.47009	-0.519257	0.00213934	0.725337	0.081382	-0.374553	0.52359	0.00264141	0.402372	-0.0135209	-0.0476793	-0.176849	-0.0293729	-0.549756	-0.220045	-0.124929	2.05243	-0.834786	-0.316423	-0.149352	2.26699
2.735	-0.204574	0.0941236	0.172288	0.845663	0.962212	-0.315694	0.108641	-0.131703	-0.146906	1.90619	-0.448082	-0.516074	0.00209475	0.715427	0.0856774	-0.352932	0.570882	0.062393	0.370646	-0.0135284	-0.0599425	-0.185669	-0.0456269	-0.551385	-0.214623	-0.1227	2.02378	-0.8181	-0.317994	-0.1453	2.25783
2.74	-0.200003	0.102	0.170375	0.84511	0.95947	-0.315556	0.144004	-0.146965	-0.132914	1.96417	-0.42549	-0.510116	0.00205018	0.706443	0.0911076	-0.332319	0.61837	0.122936	0.335937	-0.0135359	-0.071389	-0.194588	-0.0619446	-0.552932	-0.209575	-0.120578	1.99474	-0.800429	-0.319464	-0.140887	2.24713
2.745	-0.196612	0.110202	0.167695	0.844318	0.956842	-0.315368	0.18375	-0.16235	-0.115351	2.01942	-0.401772	-0.500847	0.0020056	0.697999	0.0979195	-0.312328	0.664342	0.181098	0.299176	-0.0135434	-0.0819422	-0.203682	-0.0783834	-0.554401	-0.204974	-0.118585	1.96552	-0.781705	-0.320794	-0.136142	2.23499
2.75	-0.194391	0.118722	0.164344	0.843286	0.954398	-0.31513	0.227873	-0.177704	-0.0943612	2.07144	-0.376474	-0.48793	0.00196103	0.689521	0.106066	-0.292718	0.707293	0.234571	0.261885	-0.0135509	-0.0915945	-0.212903	-0.0949991	-0.555839	-0.200899	-0.116691	1.9364	-0.761965	-0.321931	-0.13119	2.22166
2.755	-0.193216	0.127351	0.160436	0.842036	0.952197	-0.314851	0.276085	-0.192638	-0.0704053	2.11959	-0.349385	-0.471362	0.00191647	0.680338	0.115117	-0.273464	0.746086	0.282076	0.225982	-0.0135584	-0.10037	-0.221993	-0.111836	-0.557346	-0.197445	-0.11483	1.90771	-0.741369	-0.322805	-0.126245	2.20754
2.76	-0.192876	0.135646	0.156108	0.840613	0.950279	-0.314549	0.327845	-0.206491	-0.0442937	2.16319	-0.320613	-0.451538	0.00187191	0.669767	0.124271	-0.25475	0.780011	0.323312	0.193463	-0.0135659	-0.108278	-0.23044	-0.128911	-0.559086	-0.19471	-0.112921	1.87985	-0.720193	-0.323332	-0.121589	2.19312
2.765	-0.193116	0.142976	0.15151	0.839082	0.948672	-0.314247	0.382417	-0.218389	-0.0171531	2.20154	-0.290582	-0.429236	0.00182735	0.657184	0.132461	-0.236912	0.808747	0.358745	0.166121	-0.0135733	-0.115287	-0.237528	-0.146193	-0.561277	-0.192788	-0.110896	1.85322	-0.698808	-0.323421	-0.117517	2.17898
2.77	-0.193675	0.148614	0.146764	0.837517	0.947395	-0.313953	0.438936	-0.227374	0.00968051	2.23398	-0.259973	-0.405555	0.0017828	0.642067	0.138511	-0.220401	0.83227	0.389291	0.145325	-0.0135808	-0.121311	-0.242451	-0.163579	-0.56417	-0.191754	-0.108724	1.82824	-0.677626	-0.322988	-0.114296	2.1657
2.775	-0.194315	0.151866	0.141934	0.835997	0.946459	-0.313656	0.49649	-0.232575	0.0348245	2.26	-0.229631	-0.381811	0.00173825	0.624026	0.14132	-0.205727	0.850744	0.415995	0.131872	-0.0135882	-0.126232	-0.244463	-0.180864	-0.568019	-0.191659	-0.106427	1.80527	-0.657056	-0.321964	-0.112121	2.15381
2.78	-0.194844	0.152198	0.136992	0.834597	0.945873	-0.313322	0.554184	-0.233355	0.0570175	2.27922	-0.200458	-0.359422	0.00169371	0.60282	0.140021	-0.19338	0.86443	0.439749	0.125925	-0.0135957	-0.129931	-0.243005	-0.197737	-0.573055	-0.192521	-0.10408	1.78459	-0.63746	-0.32031	-0.111096	2.14376
2.785	-0.19512	0.149306	0.131818	0.833383	0.945649	-0.312912	0.611185	-0.229397	0.0752569	2.29146	-0.173312	-0.339776	0.00164917	0.578351	0.134092	-0.183751	0.873621	0.461107	0.12705	-0.0136031	-0.132326	-0.23779	-0.213806	-0.579462	-0.194324	-0.101805	1.76643	-0.61912	-0.318019	-0.111213	2.13588
2.79	-0.19502	0.143157	0.126221	0.83241	0.945794	-0.312389	0.666734	-0.220736	0.0888925	2.29669	-0.148912	-0.324078	0.00160464	0.550624	0.123417	-0.177097	0.878579	0.480191	0.134337	-0.0136105	-0.133416	-0.228839	-0.228641	-0.587368	-0.197018	-0.0997541	1.75093	-0.602223	-0.315124	-0.112365	2.13036
2.795	-0.194423	0.134001	0.119975	0.831723	0.946317	-0.311726	0.720123	-0.207734	0.097662	2.29504	-0.127775	-0.313214	0.00156012	0.519673	0.108269	-0.173562	0.879493	0.496695	0.146602	-0.013618	-0.133318	-0.216464	-0.241829	-0.596831	-0.200516	-0.0980923	1.73816	-0.586859	-0.311697	-0.11435	2.12728
2.8	-0.193199	0.122314	0.112863	0.831353	0.947236	-0.310916	0.770683	-0.191024	0.10167	2.28675	-0.110177	-0.307682	0.0015156	0.485512	0.0892564	-0.173214	0.876448	0.509953	0.162592	-0.0136254	-0.132274	-0.201221	-0.253031	-0.607842	-0.204699	-0.0969779	1.72808	-0.573035	-0.307845	-0.116907	2.12655
2.805	-0.191214	0.108722	0.104716	0.831319	0.948576	-0.309958	0.817803	-0.171426	0.101314	2.27213	-0.0961708	-0.307596	0.0014711	0.448128	0.0672357	-0.176092	0.869431	0.519041	0.181157	-0.0136328	-0.13062	-0.183827	-0.262032	-0.620331	-0.209426	-0.0965433	1.72062	-0.560697	-0.303697	-0.11975	2.12804
2.81	-0.188375	0.0938979	0.0954643	0.831629	0.950359	-0.308859	0.860972	-0.149856	0.0971739	2.25153	-0.0856125	-0.312761	0.0014266	0.407541	0.0432004	-0.182216	0.858378	0.522881	0.201342	-0.0136402	-0.128713	-0.165049	-0.268776	-0.634177	-0.214551	-0.0968771	1.71563	-0.549758	-0.299378	-0.122617	2.13151
2.815	-0.184671	0.0784642	0.0851626	0.83227	0.952599	-0.30763	0.899828	-0.127239	0.0898807	2.22532	-0.0782311	-0.322783	0.0013821	0.363882	0.0181688	-0.191574	0.843231	0.520341	0.222418	-0.0136476	-0.126851	-0.145602	-0.273381	-0.649226	-0.219939	-0.0980171	1.71293	-0.540123	-0.294994	-0.125296	2.13673
2.82	-0.180197	0.0629358	0.0739911	0.833215	0.955295	-0.306294	0.934192	-0.104437	0.0800333	2.1939	-0.0736915	-0.337174	0.00133762	0.317438	-0.00690442	-0.20413	0.823989	0.510313	0.243857	-0.013655	-0.125208	-0.126078	-0.276126	-0.665318	-0.225468	-0.0999544	1.71232	-0.531716	-0.290621	-0.127649	2.14343
2.825	-0.175155	0.0477055	0.0622193	0.834429	0.958428	-0.304884	0.964075	-0.0821917	0.0681648	2.15767	-0.0716549	-0.355408	0.00129314	0.268675	-0.0311846	-0.219837	0.800728	0.491791	0.265315	-0.0136624	-0.123803	-0.106933	-0.277399	-0.682292	-0.23103	-0.102641	1.7136	-0.524485	-0.286302	-0.129608	2.15141
2.83	-0.169835	0.0330709	0.0501579	0.835872	0.961961	-0.303444	0.989658	-0.0611056	0.0547542	2.11702	-0.0718192	-0.376943	0.00124867	0.218199	-0.0539738	-0.238646	0.773598	0.463942	0.286609	-0.0136698	-0.122509	-0.0885139	-0.277644	-0.700004	-0.236527	-0.105995	1.71657	-0.518413	-0.282061	-0.131174	2.16045
2.835	-0.164562	0.0192781	0.0381162	0.837508	0.965841	-0.302022	1.01124	-0.0416427	0.0402569	2.07233	-0.0739402	-0.401221	0.00120421	0.166698	-0.0746995	-0.260484	0.742808	0.426183	0.307687	-0.0136772	-0.121097	-0.0711014	-0.277311	-0.718314	-0.241871	-0.109908	1.72101	-0.513505	-0.277909	-0.132394	2.1704
2.84	-0.159641	0.00655801	0.0263734	0.839302	0.970002	-0.300663	1.02919	-0.0241534	0.0251316	2.02397	-0.0778176	-0.427591	0.00115975	0.114877	-0.0928881	-0.285177	0.708619	0.37828	0.328551	-0.0136846	-0.119306	-0.0549557	-0.276818	-0.737087	-0.246977	-0.114246	1.72666	-0.50978	-0.273861	-0.133348	2.18113
2.845	-0.155297	-0.00485939	0.0151613	0.841222	0.974369	-0.299396	1.04382	-0.00888854	0.00984315	1.97228	-0.0832633	-0.455248	0.0011153	0.0633816	-0.108156	-0.312346	0.671363	0.320479	0.349169	-0.013692	-0.116929	-0.0403294	-0.276513	-0.756182	-0.251765	-0.118869	1.73329	-0.507236	-0.269944	-0.134124	2.19256
2.85	-0.151629	-0.0147543	0.0046587	0.843243	0.978865	-0.298228	1.05541	0.00399878	-0.00515913	1.91756	-0.0900694	-0.483202	0.00107085	0.0127601	-0.120221	-0.341305	0.631483	0.253644	0.369377	-0.0136994	-0.113883	-0.0274511	-0.276652	-0.775453	-0.256145	-0.123647	1.74065	-0.505829	-0.266213	-0.13479	2.20465
2.855	-0.148606	-0.0229319	-0.00500455	0.845334	0.983412	-0.297148	1.06412	0.014446	-0.0194624	1.86008	-0.0979736	-0.510318	0.00102642	-0.0365413	-0.128905	-0.370961	0.589599	0.179394	0.388758	-0.0137068	-0.110231	-0.0165101	-0.277388	-0.794754	-0.260027	-0.128479	1.7485	-0.505459	-0.262739	-0.135384	2.21738
2.86	-0.1461	-0.029253	-0.013736	0.847469	0.987935	-0.296132	1.07004	0.0224663	-0.0327123	1.80009	-0.106631	-0.535381	0.000981985	-0.0841267	-0.134132	-0.399789	0.546569	0.100156	0.406552	-0.0137142	-0.106147	-0.00764645	-0.278789	-0.813935	-0.263324	-0.133299	1.75663	-0.505973	-0.259609	-0.135904	2.23071
2.865	-0.14395	-0.0336197	-0.0214652	0.849611	0.992362	-0.295167	1.07327	0.0281369	-0.0446402	1.73779	-0.115594	-0.557176	0.000937563	-0.129587	-0.135943	-0.425886	0.503538	0.0191059	0.421601	-0.0137216	-0.101853	-0.000921265	-0.280852	-0.832859	-0.265962	-0.138078	1.76485	-0.507184	-0.256908	-0.136311	2.24463
2.87	-0.142029	-0.0360149	-0.028139	0.851718	0.996626	-0.294263	1.07397	0.0315901	-0.0550933	1.67338	-0.124323	-0.57457	0.000893148	-0.172443	-0.134517	-0.447138	0.461958	-0.0600711	0.432387	-0.013729	-0.0975541	0.00369823	-0.283534	-0.851403	-0.267889	-0.142828	1.77303	-0.508894	-0.254705	-0.136538	2.25909
2.875	-0.140285	-0.0365285	-0.0337176	0.853743	1.00067	-0.293456	1.07235	0.0330121	-0.0640612	1.60701	-0.132233	-0.586577	0.000848742	-0.212125	-0.130197	-0.461509	0.423543	-0.133584	0.437208	-0.0137365	-0.0933838	0.00635726	-0.28676	-0.869468	-0.269075	-0.147589	1.78104	-0.510924	-0.253049	-0.136494	2.27402
2.88	-0.138742	-0.0353637	-0.0381761	0.85564	1.00445	-0.292803	1.06868	0.0326439	-0.0716857	1.5388	-0.138754	-0.592421	0.000804344	-0.248009	-0.12351	-0.467376	0.390147	-0.198054	0.434476	-0.0137439	-0.0893956	0.007319	-0.290438	-0.88698	-0.269509	-0.152422	1.78881	-0.513127	-0.251967	-0.136076	2.28936
2.885	-0.137467	-0.0328002	-0.0415056	0.857374	1.00793	-0.29235	1.06321	0.0307735	-0.0782398	1.4688	-0.143407	-0.591588	0.000759952	-0.279509	-0.115127	-0.46382	0.363578	-0.25102	0.423063	-0.0137513	-0.0855824	0.00694755	-0.294458	-0.903883	-0.269192	-0.157392	1.7963	-0.5154	-0.251463	-0.13517	2.305
2.89	-0.136532	-0.0291834	-0.0437244	0.858924	1.01109	-0.292124	1.05611	0.0277121	-0.0840779	1.39699	-0.145865	-0.583863	0.000715566	-0.306188	-0.105771	-0.450805	0.345366	-0.291295	0.402596	-0.0137587	-0.0819238	0.00563789	-0.298692	-0.920121	-0.268131	-0.162555	1.80346	-0.517674	-0.251522	-0.133669	2.32079
